<svg xmlns="http://www.w3.org/2000/svg" viewBox="0 0 1600 900" role="img" aria-label="Blue studio background">
  <defs>
    <linearGradient id="wall" x1="0" y1="0" x2="1" y2="1">
      <stop offset="0" stop-color="#081527"/>
      <stop offset="0.48" stop-color="#0b2343"/>
      <stop offset="1" stop-color="#020817"/>
    </linearGradient>
    <radialGradient id="centerGlow" cx="52%" cy="35%" r="55%">
      <stop offset="0" stop-color="#60a5fa" stop-opacity="0.38"/>
      <stop offset="0.48" stop-color="#2563eb" stop-opacity="0.16"/>
      <stop offset="1" stop-color="#020817" stop-opacity="0"/>
    </radialGradient>
    <radialGradient id="sideGlow" cx="0%" cy="18%" r="60%">
      <stop offset="0" stop-color="#38bdf8" stop-opacity="0.22"/>
      <stop offset="1" stop-color="#020817" stop-opacity="0"/>
    </radialGradient>
    <filter id="softBlur" x="-20%" y="-20%" width="140%" height="140%">
      <feGaussianBlur stdDeviation="36"/>
    </filter>
  </defs>
  <rect width="1600" height="900" fill="url(#wall)"/>
  <rect width="1600" height="900" fill="url(#centerGlow)"/>
  <rect width="1600" height="900" fill="url(#sideGlow)" opacity="0.9"/>
  <g filter="url(#softBlur)" opacity="0.42">
    <ellipse cx="260" cy="260" rx="220" ry="420" fill="#0ea5e9"/>
    <ellipse cx="1320" cy="250" rx="240" ry="430" fill="#2563eb"/>
  </g>
  <g opacity="0.3">
    <rect x="92" y="120" width="150" height="640" rx="44" fill="#13325b"/>
    <rect x="1358" y="110" width="150" height="650" rx="44" fill="#10284a"/>
    <rect x="135" y="170" width="64" height="535" rx="28" fill="#38bdf8" opacity="0.2"/>
    <rect x="1400" y="165" width="64" height="535" rx="28" fill="#60a5fa" opacity="0.18"/>
  </g>
  <path d="M0 746c270-45 518-48 744-12 300 48 563 44 856-18v184H0Z" fill="#020817" opacity="0.46"/>
  <rect width="1600" height="900" fill="#020817" opacity="0.08"/>
</svg>
