<svg xmlns="http://www.w3.org/2000/svg" viewBox="0 0 1600 900" role="img" aria-label="Blue studio background">
  <defs>
    <linearGradient id="wall" x1="0" y1="0" x2="1" y2="1">
      <stop offset="0" stop-color="#061120"/>
      <stop offset="0.55" stop-color="#0b1b33"/>
      <stop offset="1" stop-color="#020817"/>
    </linearGradient>
    <radialGradient id="glow" cx="50%" cy="34%" r="58%">
      <stop offset="0" stop-color="#38bdf8" stop-opacity="0.48"/>
      <stop offset="0.42" stop-color="#2563eb" stop-opacity="0.22"/>
      <stop offset="1" stop-color="#020817" stop-opacity="0"/>
    </radialGradient>
    <filter id="soft" x="-20%" y="-20%" width="140%" height="140%">
      <feGaussianBlur stdDeviation="18"/>
    </filter>
  </defs>
  <rect width="1600" height="900" fill="url(#wall)"/>
  <rect width="1600" height="900" fill="url(#glow)"/>
  <g opacity="0.34" filter="url(#soft)">
    <ellipse cx="360" cy="140" rx="240" ry="120" fill="#60a5fa"/>
    <ellipse cx="1240" cy="185" rx="260" ry="120" fill="#38bdf8"/>
  </g>
  <g opacity="0.42">
    <rect x="90" y="120" width="230" height="610" rx="28" fill="#0f2b55"/>
    <rect x="1280" y="110" width="230" height="620" rx="28" fill="#0f2b55"/>
    <rect x="133" y="162" width="144" height="500" rx="16" fill="#38bdf8" opacity="0.26"/>
    <rect x="1323" y="152" width="144" height="510" rx="16" fill="#60a5fa" opacity="0.23"/>
  </g>
  <path d="M0 684c232-53 433-75 676-62 338 18 560 95 924 32v246H0Z" fill="#020817" opacity="0.82"/>
  <path d="M0 760c286-74 571-76 862-30 271 43 459 62 738 9v161H0Z" fill="#07111f"/>
  <path d="M0 685h1600" stroke="#38bdf8" stroke-opacity="0.18" stroke-width="2"/>
</svg>
