<svg xmlns="http://www.w3.org/2000/svg" viewBox="0 0 1600 900" role="img" aria-label="City night background">
  <defs>
    <linearGradient id="sky" x1="0" y1="0" x2="0" y2="1">
      <stop offset="0" stop-color="#020817"/>
      <stop offset="0.5" stop-color="#071b36"/>
      <stop offset="1" stop-color="#030712"/>
    </linearGradient>
    <radialGradient id="moon" cx="72%" cy="18%" r="22%">
      <stop offset="0" stop-color="#dbeafe" stop-opacity="0.88"/>
      <stop offset="0.18" stop-color="#93c5fd" stop-opacity="0.36"/>
      <stop offset="1" stop-color="#020817" stop-opacity="0"/>
    </radialGradient>
  </defs>
  <rect width="1600" height="900" fill="url(#sky)"/>
  <rect width="1600" height="900" fill="url(#moon)"/>
  <g opacity="0.18" stroke="#38bdf8">
    <path d="M0 210h1600M0 330h1600M0 450h1600M0 570h1600"/>
    <path d="M220 0v640M460 0v640M700 0v640M940 0v640M1180 0v640M1420 0v640"/>
  </g>
  <g fill="#020817">
    <rect x="40" y="510" width="150" height="390"/>
    <rect x="220" y="430" width="190" height="470"/>
    <rect x="445" y="555" width="130" height="345"/>
    <rect x="610" y="385" width="210" height="515"/>
    <rect x="855" y="475" width="170" height="425"/>
    <rect x="1065" y="355" width="235" height="545"/>
    <rect x="1340" y="505" width="190" height="395"/>
  </g>
  <g fill="#60a5fa" opacity="0.52">
    <rect x="82" y="552" width="34" height="20" rx="4"/>
    <rect x="258" y="477" width="36" height="22" rx="4"/>
    <rect x="326" y="536" width="36" height="22" rx="4"/>
    <rect x="653" y="432" width="42" height="24" rx="4"/>
    <rect x="728" y="512" width="42" height="24" rx="4"/>
    <rect x="908" y="530" width="36" height="22" rx="4"/>
    <rect x="1120" y="405" width="44" height="24" rx="4"/>
    <rect x="1211" y="486" width="44" height="24" rx="4"/>
    <rect x="1391" y="552" width="38" height="22" rx="4"/>
  </g>
  <rect y="670" width="1600" height="230" fill="#020817" opacity="0.68"/>
  <path d="M0 674c225 55 463 65 714 31 321-43 561-17 886 39v156H0Z" fill="#030712"/>
</svg>
