<svg xmlns="http://www.w3.org/2000/svg" viewBox="0 0 1600 900" role="img" aria-label="Focus room background">
  <defs>
    <linearGradient id="wall" x1="0" y1="0" x2="1" y2="1">
      <stop offset="0" stop-color="#081527"/>
      <stop offset="0.58" stop-color="#0b1b33"/>
      <stop offset="1" stop-color="#020817"/>
    </linearGradient>
    <radialGradient id="lamp" cx="52%" cy="8%" r="48%">
      <stop offset="0" stop-color="#93c5fd" stop-opacity="0.28"/>
      <stop offset="0.5" stop-color="#2563eb" stop-opacity="0.1"/>
      <stop offset="1" stop-color="#020817" stop-opacity="0"/>
    </radialGradient>
    <filter id="softBlur" x="-20%" y="-20%" width="140%" height="140%">
      <feGaussianBlur stdDeviation="20"/>
    </filter>
  </defs>
  <rect width="1600" height="900" fill="url(#wall)"/>
  <rect width="1600" height="900" fill="url(#lamp)"/>
  <g opacity="0.32">
    <rect x="110" y="150" width="330" height="380" rx="26" fill="#020817"/>
    <rect x="1160" y="150" width="330" height="380" rx="26" fill="#020817"/>
  </g>
  <g fill="#38bdf8" opacity="0.16" filter="url(#softBlur)">
    <rect x="150" y="210" width="250" height="260" rx="36"/>
    <rect x="1200" y="210" width="250" height="260" rx="36"/>
  </g>
  <g fill="#60a5fa" opacity="0.22">
    <rect x="175" y="230" width="190" height="18" rx="9"/>
    <rect x="175" y="330" width="215" height="18" rx="9"/>
    <rect x="1215" y="250" width="210" height="18" rx="9"/>
    <rect x="1215" y="362" width="185" height="18" rx="9"/>
  </g>
  <path d="M0 720h1600v180H0Z" fill="#020817" opacity="0.58"/>
  <path d="M410 718h780l70 182H340Z" fill="#061120" opacity="0.72"/>
</svg>
