<svg xmlns="http://www.w3.org/2000/svg" viewBox="0 0 1600 900" role="img" aria-label="Ocean glass background">
  <defs>
    <linearGradient id="base" x1="0" y1="0" x2="1" y2="1">
      <stop offset="0" stop-color="#07111f"/>
      <stop offset="0.5" stop-color="#0b2a54"/>
      <stop offset="1" stop-color="#020817"/>
    </linearGradient>
    <radialGradient id="light" cx="72%" cy="24%" r="34%">
      <stop offset="0" stop-color="#bfdbfe" stop-opacity="0.3"/>
      <stop offset="0.42" stop-color="#38bdf8" stop-opacity="0.14"/>
      <stop offset="1" stop-color="#020817" stop-opacity="0"/>
    </radialGradient>
    <linearGradient id="glass" x1="0" y1="0" x2="1" y2="0">
      <stop offset="0" stop-color="#38bdf8" stop-opacity="0.16"/>
      <stop offset="0.48" stop-color="#60a5fa" stop-opacity="0.28"/>
      <stop offset="1" stop-color="#2563eb" stop-opacity="0.12"/>
    </linearGradient>
    <filter id="softBlur" x="-20%" y="-20%" width="140%" height="140%">
      <feGaussianBlur stdDeviation="30"/>
    </filter>
  </defs>
  <rect width="1600" height="900" fill="url(#base)"/>
  <rect width="1600" height="900" fill="url(#light)"/>
  <g filter="url(#softBlur)" opacity="0.56">
    <ellipse cx="330" cy="730" rx="430" ry="115" fill="#0ea5e9"/>
    <ellipse cx="1120" cy="760" rx="560" ry="140" fill="#2563eb"/>
  </g>
  <path d="M0 690c250-58 497-62 740-12 318 65 570 56 860-26v248H0Z" fill="url(#glass)" opacity="0.82"/>
  <path d="M0 768c302-37 604-29 908 24 245 43 456 37 692-21v129H0Z" fill="#020817" opacity="0.42"/>
  <rect x="0" y="0" width="1600" height="900" fill="none" stroke="#38bdf8" stroke-opacity="0.08" stroke-width="18"/>
</svg>
