<svg xmlns="http://www.w3.org/2000/svg" viewBox="0 0 1600 900" role="img" aria-label="Ocean glass background">
  <defs>
    <linearGradient id="sky" x1="0" y1="0" x2="0" y2="1">
      <stop offset="0" stop-color="#07111f"/>
      <stop offset="0.48" stop-color="#0b2a54"/>
      <stop offset="1" stop-color="#020817"/>
    </linearGradient>
    <linearGradient id="water" x1="0" y1="0" x2="1" y2="1">
      <stop offset="0" stop-color="#38bdf8" stop-opacity="0.52"/>
      <stop offset="0.5" stop-color="#2563eb" stop-opacity="0.36"/>
      <stop offset="1" stop-color="#020817"/>
    </linearGradient>
    <filter id="blur" x="-20%" y="-20%" width="140%" height="140%">
      <feGaussianBlur stdDeviation="24"/>
    </filter>
  </defs>
  <rect width="1600" height="900" fill="url(#sky)"/>
  <circle cx="1180" cy="210" r="115" fill="#dbeafe" opacity="0.22" filter="url(#blur)"/>
  <rect y="405" width="1600" height="495" fill="url(#water)"/>
  <path d="M0 440c160-42 280-42 443-1 154 39 294 45 455 4 224-57 437-61 702 2v455H0Z" fill="#020817" opacity="0.28"/>
  <g stroke="#bfdbfe" stroke-opacity="0.22" stroke-width="3">
    <path d="M0 505c194-31 386-31 578 0s384 31 576 0 329-30 446-4"/>
    <path d="M0 596c179-28 344-28 496 0s315 28 489 0 369-29 615 1"/>
    <path d="M0 705c212-36 405-36 580 0s362 36 561 0 340-35 459-2"/>
  </g>
  <rect x="0" y="0" width="1600" height="900" fill="none" stroke="#38bdf8" stroke-opacity="0.12" stroke-width="18"/>
</svg>
